<svg width="83.02" height="122.87999999999998" xmlns="http://www.w3.org/2000/svg" xml:space="preserve" version="1.1">

 <g>
  <title>Layer 1</title>
  <g id="svg_1">
   <path fill="#845335" id="svg_2" clip-rule="evenodd" fill-rule="evenodd" d="m83.02,0.29412l-83.02,0l0.37,122.88l40.99,-22.18l40.26,21.88l1.4,-122.58l0,0zm-35.54,25.82l-5.97,-18.28c5.8,0 10.94,1.64 15.46,4.92c4.51,3.27 7.74,7.73 9.73,13.36l-19.22,0l0,0zm3.66,11.35l15.57,-11.31c0.85,3.05 1.28,5.81 1.28,8.27c0,8.71 -3.64,15.82 -10.92,21.33l-5.93,-18.29l0,0l0,0zm-9.63,6.97l15.56,11.31c-4.91,3.36 -10.1,5.05 -15.56,5.05c-5.44,0 -10.63,-1.68 -15.56,-5.05l15.56,-11.31l0,0zm-9.62,-6.97l-5.94,18.28c-7.28,-5.75 -10.92,-12.88 -10.92,-21.4c0,-2.48 0.44,-5.22 1.32,-8.2l15.54,11.32l0,0l0,0zm3.69,-11.35l-19.23,0c1.94,-5.61 5.17,-10.05 9.7,-13.35c4.53,-3.28 9.69,-4.93 15.46,-4.93l-5.93,18.28l0,0l0,0z" class="st0"/>
  </g>
 </g>
</svg>