<svg width="512" height="329.79" xmlns="http://www.w3.org/2000/svg" clip-rule="evenodd" fill-rule="evenodd" image-rendering="optimizeQuality" text-rendering="geometricPrecision" shape-rendering="geometricPrecision">

 <g>
  <title>Layer 1</title>
  <path fill="#845335" id="svg_1" d="m63.64,0l256.87,0c17.41,0 33.28,7.24 44.81,18.77c11.6,11.6 18.82,27.62 18.82,45l0,2.94l109.28,-48.41c6.69,-2.94 14.5,0.1 17.44,6.78c0.76,1.73 1.13,3.55 1.13,5.33l0.01,268.98c0,7.31 -5.94,13.25 -13.25,13.25c-2.28,0 -4.42,-0.58 -6.3,-1.6l-108.31,-50.06l0,5.05c0,17.33 -7.28,33.29 -18.88,44.9l-0.08,0.08c-11.55,11.52 -27.46,18.78 -44.67,18.78l-256.87,0c-17.28,0 -33.21,-7.19 -44.8,-18.76c-11.61,-11.63 -18.84,-27.54 -18.84,-45l0,-202.26c0,-17.54 7.18,-33.49 18.73,-45.05c11.55,-11.54 27.45,-18.72 44.91,-18.72zm104.72,229.13c-1.12,0.48 -2.49,0.26 -3.39,-0.65l-53.52,-53.53c-1.19,-1.21 -1.21,-3.18 0,-4.38l19.44,-19.45c1.21,-1.21 3.17,-1.19 4.38,0l31.94,31.94l81.65,-81.65a3.096,3.096 0 0 1 4.38,0l19.45,19.44a3.105,3.105 0 0 1 0,4.38l-103.17,103.17c-0.27,0.27 -0.57,0.47 -0.89,0.62l-0.01,0l-0.12,0.05l-0.02,0.02l-0.12,0.04zm216.71,-133.9l0,137.06l100.44,46.42l0,-227.96l-100.44,44.48zm-64.56,-68.74l-256.87,0a37.36,37.36 0 0 0 -26.47,10.96c-6.75,6.75 -10.95,16.07 -10.95,26.32l0,202.26c0,10.18 4.22,19.45 10.95,26.16c6.86,6.87 16.28,11.11 26.47,11.11l256.87,0c10.14,0 19.52,-4.29 26.32,-11.11c6.83,-6.82 11.09,-16.11 11.09,-26.16l0,-202.26c0,-10.11 -4.24,-19.47 -11.04,-26.27c-6.76,-6.75 -16.11,-11.01 -26.37,-11.01z" fill-rule="nonzero"/>
 </g>
</svg>